<?xml version="1.0" standalone="no"?>
<!DOCTYPE svg PUBLIC "-//W3C//DTD SVG 20010904//EN"
 "http://www.w3.org/TR/2001/REC-SVG-20010904/DTD/svg10.dtd">
<svg version="1.0" xmlns="http://www.w3.org/2000/svg"
 width="1024.000000pt" height="1024.000000pt" viewBox="0 0 1024.000000 1024.000000"
 preserveAspectRatio="xMidYMid meet">
<metadata>
Created by potrace 1.11, written by Peter Selinger 2001-2013
</metadata>
<g transform="translate(0.000000,1024.000000) scale(0.100000,-0.100000)"
fill="#000000" stroke="none">
<path d="M2844 8645 c-791 -116 -1405 -753 -1494 -1550 -13 -123 -13 -3827 0
-3950 67 -596 425 -1112 959 -1379 283 -142 494 -186 891 -185 l245 1 -95 13
c-759 105 -1345 655 -1501 1411 -21 101 -23 141 -27 539 -3 391 -2 433 13 462
35 65 10 63 889 63 774 0 794 0 818 20 46 36 49 57 46 359 l-3 283 -37 34 -38
34 -802 0 c-785 0 -804 1 -836 20 -18 11 -37 32 -42 46 -6 15 -10 176 -10 386
l0 360 34 34 34 34 1290 0 c1277 0 1290 0 1315 -20 41 -33 49 -73 32 -163 -8
-45 -15 -135 -15 -207 0 -392 149 -697 435 -890 119 -81 215 -121 515 -215
327 -104 434 -151 523 -234 76 -72 113 -136 133 -233 29 -136 -8 -324 -84
-423 -48 -65 -145 -129 -235 -157 -58 -18 -96 -23 -192 -23 -116 0 -122 1
-190 34 -91 44 -234 185 -285 281 -31 59 -34 75 -40 175 -9 185 -8 185 -355
185 -283 0 -312 -5 -340 -61 -20 -37 -19 -167 0 -289 83 -507 499 -928 1006
-1016 141 -24 390 -15 522 19 347 91 668 352 827 672 28 55 62 145 77 200 23
89 27 119 27 270 1 239 -29 387 -117 560 -60 120 -111 191 -206 285 -167 167
-303 238 -728 381 -320 107 -399 144 -476 221 -75 75 -92 122 -92 248 1 137
24 201 104 280 89 89 197 128 321 116 121 -11 225 -58 289 -132 48 -54 63 -97
68 -194 9 -176 5 -174 343 -178 293 -4 323 0 366 51 27 32 27 32 21 147 -15
272 -116 493 -311 678 -168 159 -343 255 -566 308 -71 17 -192 19 -2032 24
l-1958 5 -27 28 -28 27 0 338 c0 311 2 346 23 450 153 758 741 1312 1502 1417
94 13 92 13 -160 13 -159 0 -289 -5 -346 -13z"/>
</g>
</svg>
